<svg width="37" height="37" viewBox="0 0 37 37" fill="none" xmlns="http://www.w3.org/2000/svg">
<path d="M18.5 36.9982C28.7174 36.9982 37 28.716 37 18.4992C37 8.28222 28.7174 0 18.5 0C8.2826 0 0 8.28222 0 18.4992C0 28.716 8.2826 36.9982 18.5 36.9982Z" fill="#32BEA6"/>
<path d="M32.9625 26.5984C32.9625 26.8298 32.8705 27.0518 32.7069 27.2155C32.5432 27.3791 32.3212 27.4711 32.0898 27.4711H5.90786C5.67646 27.4711 5.45446 27.3791 5.29076 27.2155C5.12716 27.0518 5.03516 26.8298 5.03516 26.5984V9.14467C5.03516 8.91317 5.12716 8.69117 5.29076 8.52757C5.45446 8.36387 5.67646 8.27197 5.90786 8.27197H32.0898C32.3212 8.27197 32.5432 8.36387 32.7069 8.52757C32.8705 8.69117 32.9625 8.91317 32.9625 9.14467V26.5984Z" fill="#F3B607"/>
<path d="M5.90786 8.27197C5.67646 8.27197 5.45446 8.36387 5.29076 8.52757C5.12716 8.69117 5.03516 8.91317 5.03516 9.14467V26.5984C5.03516 26.8301 5.12726 27.0395 5.27476 27.1962L24.1999 8.27197H5.90786Z" fill="#FACB1B"/>
<path d="M30.3463 16.1261C30.3463 16.3575 30.2543 16.5795 30.0906 16.7432C29.927 16.9068 29.705 16.9988 29.4735 16.9988H24.6735C24.4421 16.9988 24.2201 16.9068 24.0564 16.7432C23.8928 16.5795 23.8008 16.3575 23.8008 16.1261V12.6353C23.8008 12.4039 23.8928 12.1819 24.0564 12.0183C24.2201 11.8546 24.4421 11.7627 24.6735 11.7627H29.4735C29.705 11.7627 29.927 11.8546 30.0906 12.0183C30.2543 12.1819 30.3463 12.4039 30.3463 12.6353V16.1261Z" fill="#FBEC9A"/>
<path d="M14.6657 17.8712C14.2364 17.8715 13.812 17.7799 13.4209 17.6027C13.0298 17.4255 12.6812 17.1667 12.3984 16.8436C12.8844 16.2924 13.1531 15.5831 13.1542 14.8482C13.1531 14.1134 12.8844 13.404 12.3984 12.8528C12.6812 12.5298 13.0299 12.271 13.4209 12.0938C13.812 11.9166 14.2364 11.825 14.6657 11.8252C15.0628 11.8251 15.4561 11.9032 15.823 12.0551C16.1898 12.2071 16.5232 12.4297 16.804 12.7105C17.0848 12.9913 17.3075 13.3246 17.4594 13.6915C17.6113 14.0584 17.6894 14.4516 17.6893 14.8487C17.6894 15.2457 17.6112 15.6388 17.4593 16.0056C17.3073 16.3724 17.0846 16.7057 16.8038 16.9864C16.523 17.2671 16.1897 17.4897 15.8228 17.6415C15.456 17.7933 15.0628 17.8714 14.6657 17.8712Z" fill="#FBE158"/>
<path d="M12.4002 16.8434C11.9143 16.2923 11.6456 15.583 11.6445 14.8482C11.6456 14.1134 11.9143 13.4042 12.4002 12.853C12.8862 13.4042 13.1549 14.1134 13.156 14.8482C13.1548 15.583 12.8862 16.2923 12.4002 16.8434Z" fill="#F99134"/>
<path d="M10.1329 17.8715C9.73578 17.8716 9.34258 17.7935 8.97568 17.6416C8.60878 17.4897 8.27548 17.267 7.99468 16.9862C7.71388 16.7054 7.49118 16.3721 7.33928 16.0052C7.18738 15.6384 7.10928 15.2452 7.10938 14.8481C7.10928 14.451 7.18738 14.0578 7.33928 13.6909C7.49118 13.3241 7.71388 12.9907 7.99468 12.7099C8.27548 12.4292 8.60878 12.2065 8.97568 12.0546C9.34258 11.9027 9.73578 11.8245 10.1329 11.8247C10.5623 11.8244 10.9867 11.9159 11.3778 12.0932C11.7688 12.2704 12.1175 12.5292 12.4003 12.8523C11.9143 13.4035 11.6456 14.1128 11.6445 14.8476C11.6456 15.5825 11.9143 16.2918 12.4003 16.843C12.1176 17.1663 11.769 17.4254 11.378 17.6028C10.9869 17.7801 10.5624 17.8718 10.1329 17.8715Z" fill="#FA5655"/>
<path d="M8.09886 25.1164V24.7654C8.09886 24.7147 8.12156 24.6785 8.18566 24.6785C8.24986 24.6785 8.27256 24.7147 8.27256 24.7654V25.2033C8.27256 25.2662 8.23066 25.2902 8.18566 25.2902H7.50086C7.45546 25.2902 7.41406 25.2658 7.41406 25.2033C7.41406 25.1409 7.45596 25.1164 7.50086 25.1164H7.75616V24.1113H7.50086C7.45546 24.1113 7.41406 24.0868 7.41406 24.0244C7.41406 23.962 7.45596 23.9375 7.50086 23.9375H7.92996V25.1164H8.09886Z" fill="#3E3E3F"/>
<path d="M8.83816 25.1164H9.43616C9.48156 25.1164 9.52296 25.1409 9.52296 25.2033C9.52296 25.2662 9.48106 25.2902 9.43616 25.2902H8.66406V24.7235C8.66406 24.5929 8.72996 24.527 8.86046 24.527H9.34886V24.1113H8.75086C8.70546 24.1113 8.66406 24.0868 8.66406 24.0244C8.66406 23.962 8.70596 23.9375 8.75086 23.9375H9.32786C9.38546 23.9375 9.42526 23.9462 9.46886 23.9864C9.51776 24.0318 9.52296 24.0785 9.52296 24.141V24.4973C9.52296 24.5597 9.51776 24.6069 9.46886 24.6518C9.42526 24.6916 9.38546 24.7003 9.32786 24.7003H8.83776L8.83816 25.1164Z" fill="#3E3E3F"/>
<path d="M10.001 24.1108C9.95556 24.1108 9.91406 24.0864 9.91406 24.0239C9.91406 23.9615 9.95596 23.937 10.001 23.937H10.599C10.6219 23.9366 10.6447 23.9407 10.666 23.9493C10.6873 23.9579 10.7066 23.9707 10.7228 23.9869C10.7391 24.0031 10.7519 24.0225 10.7604 24.0438C10.769 24.0651 10.7731 24.0879 10.7727 24.1108V24.4449C10.7727 24.5143 10.7587 24.5649 10.7046 24.6134C10.7587 24.6623 10.7727 24.7125 10.7727 24.7819V25.116C10.7731 25.1389 10.769 25.1617 10.7604 25.183C10.7519 25.2043 10.7391 25.2237 10.7228 25.2399C10.7066 25.2562 10.6873 25.2689 10.666 25.2775C10.6447 25.2861 10.6219 25.2902 10.599 25.2898H10.001C9.95556 25.2898 9.91406 25.2653 9.91406 25.2029C9.91406 25.1404 9.95596 25.116 10.001 25.116H10.599V24.8269C10.599 24.7296 10.561 24.6999 10.5121 24.6999H10.1712C10.1258 24.6999 10.0843 24.6754 10.0843 24.613C10.0843 24.5505 10.1258 24.5261 10.1712 24.5261H10.5121C10.5605 24.5261 10.599 24.4968 10.599 24.399V24.1108H10.001Z" fill="#3E3E3F"/>
<path d="M11.765 24.674V24.1714C11.765 24.1278 11.786 24.0845 11.8519 24.0845C11.9178 24.0845 11.9388 24.1282 11.9388 24.1714V24.674C11.9842 24.674 12.0256 24.6985 12.0256 24.7609C12.0256 24.8233 11.9837 24.8478 11.9388 24.8478V25.2023C11.9388 25.2578 11.9143 25.2892 11.8519 25.2892C11.7895 25.2892 11.765 25.2578 11.765 25.2023V24.8478H11.2539V24.0234C11.2539 23.9797 11.2749 23.9365 11.3408 23.9365C11.4067 23.9365 11.4276 23.9802 11.4276 24.0234V24.674H11.765Z" fill="#3E3E3F"/>
<path d="M14.0137 24.526H14.3336C14.3891 24.526 14.431 24.5347 14.4729 24.5749C14.5213 24.6203 14.5265 24.6618 14.5265 24.7225V25.0949C14.5265 25.1486 14.5213 25.1871 14.4846 25.2307C14.4414 25.2827 14.396 25.2897 14.3336 25.2897H13.9478C13.9024 25.2897 13.8766 25.2775 13.833 25.2582L13.7671 25.229C13.7204 25.208 13.668 25.1923 13.668 25.1316C13.668 25.0862 13.706 25.0447 13.7514 25.0447C13.7723 25.0447 13.788 25.05 13.8072 25.0587L13.8592 25.0814C13.8836 25.0919 13.9233 25.1163 13.9513 25.1163H14.3528V24.7002H13.84V23.9365H14.4397C14.4851 23.9365 14.5265 23.961 14.5265 24.0234C14.5265 24.0863 14.4846 24.1103 14.4397 24.1103H14.0137V24.526Z" fill="#3E3E3F"/>
<path d="M15.0921 24.6745H15.6727C15.7595 24.6745 15.777 24.7108 15.777 24.7911V25.1806C15.777 25.2623 15.7421 25.2902 15.6639 25.2902H15.031C14.9494 25.2902 14.918 25.2605 14.918 25.1806V24.0244C14.918 23.9847 14.9319 23.9375 14.9926 23.9375H15.0969C15.1423 23.9375 15.179 23.9794 15.179 24.0244C15.1796 24.036 15.1777 24.0475 15.1735 24.0583C15.1694 24.0691 15.163 24.0789 15.1548 24.0871C15.1466 24.0953 15.1368 24.1016 15.126 24.1058C15.1152 24.11 15.1037 24.1118 15.0921 24.1113V24.6745ZM15.0921 24.8483V25.116H15.6033V24.8483H15.0921Z" fill="#3E3E3F"/>
<path d="M16.3421 24.1113C16.3421 24.1493 16.3107 24.1982 16.2553 24.1982C16.2323 24.1978 16.2103 24.1886 16.1941 24.1724C16.1778 24.1562 16.1684 24.1343 16.168 24.1113V24.0244C16.168 23.9864 16.1994 23.9375 16.2548 23.9375H17.0265V24.4418C17.0265 24.5025 17.0283 24.5095 16.9798 24.5514L16.7363 24.7619C16.6909 24.8016 16.6878 24.8051 16.6878 24.8662V25.2033C16.6878 25.2588 16.6634 25.2902 16.601 25.2902C16.5385 25.2902 16.5141 25.2588 16.5141 25.2033V24.7846C16.5141 24.7269 16.5158 24.7217 16.5595 24.6837L16.7996 24.4768C16.8567 24.4261 16.8532 24.4283 16.8532 24.3514V24.1113H16.3421Z" fill="#3E3E3F"/>
<path d="M18.0156 23.9365C18.0745 23.9365 18.1024 23.9784 18.1024 24.0234V24.526C18.1496 24.5249 18.1952 24.5425 18.2295 24.5749C18.2609 24.6041 18.2766 24.6478 18.2766 24.702V25.1159C18.2766 25.222 18.2107 25.2897 18.1029 25.2897H17.5918C17.484 25.2897 17.418 25.222 17.418 25.1159V24.702C17.418 24.6478 17.4338 24.6046 17.4647 24.5749C17.499 24.5425 17.5446 24.5249 17.5918 24.526V24.0234C17.5918 23.978 17.6193 23.9365 17.6786 23.9365H18.0156ZM18.1024 25.1159V24.7002H17.5913V25.1159H18.1024ZM17.9287 24.526V24.1107H17.7655V24.5264L17.9287 24.526Z" fill="#3E3E3F"/>
<path d="M20.6029 24.5557H20.0049C19.982 24.5552 19.9601 24.5459 19.944 24.5297C19.9278 24.5135 19.9185 24.4917 19.918 24.4688V24.0234C19.918 23.978 19.9564 23.9365 20.0049 23.9365H20.6897C20.7382 23.9365 20.7766 23.9784 20.7766 24.0234V25.2023C20.7766 25.2491 20.7417 25.2892 20.6897 25.2892H20.6029C20.5914 25.2895 20.58 25.2874 20.5693 25.2831C20.5587 25.2788 20.549 25.2724 20.5409 25.2643C20.5328 25.2562 20.5264 25.2465 20.5221 25.2359C20.5178 25.2252 20.5158 25.2138 20.516 25.2023C20.5154 25.1908 20.5173 25.1792 20.5215 25.1684C20.5256 25.1576 20.532 25.1478 20.5402 25.1397C20.5484 25.1315 20.5582 25.1251 20.569 25.1209C20.5798 25.1168 20.5913 25.1149 20.6029 25.1155V24.5557ZM20.6029 24.3819V24.1107H20.0917V24.3819H20.6029Z" fill="#3E3E3F"/>
<path d="M21.769 23.9365C21.8279 23.9365 21.8558 23.9784 21.8558 24.0234V24.526C21.91 24.526 21.9514 24.5452 21.9829 24.5749C22.0143 24.6041 22.03 24.6478 22.03 24.702V25.1159C22.03 25.222 21.9641 25.2897 21.8563 25.2897H21.3456C21.2378 25.2897 21.1719 25.222 21.1719 25.1159V24.702C21.1719 24.6478 21.1876 24.6046 21.2186 24.5749C21.2355 24.5588 21.2554 24.5462 21.2772 24.5378C21.299 24.5294 21.3223 24.5254 21.3456 24.526V24.0234C21.3456 23.978 21.3731 23.9365 21.4325 23.9365H21.769ZM21.8554 25.1159V24.7002H21.3447V25.1159H21.8554ZM21.6821 24.526V24.1107H21.5185V24.5264L21.6821 24.526Z" fill="#3E3E3F"/>
<path d="M22.5956 24.1113C22.5956 24.1493 22.5646 24.1982 22.5088 24.1982C22.4533 24.1982 22.4219 24.1493 22.4219 24.1113V24.0244C22.4219 23.9864 22.4533 23.9375 22.5088 23.9375H23.2809V24.4418C23.2809 24.5025 23.2826 24.5095 23.2342 24.5514L22.9906 24.7619C22.9452 24.8016 22.9422 24.8051 22.9422 24.8662V25.2033C22.9422 25.2588 22.9178 25.2902 22.8553 25.2902C22.7925 25.2902 22.7685 25.2588 22.7685 25.2033V24.7846C22.7685 24.7269 22.7702 24.7217 22.8139 24.6837L23.0539 24.4768C23.1111 24.4261 23.1076 24.4283 23.1076 24.3514V24.1113H22.5956Z" fill="#3E3E3F"/>
<path d="M23.8456 24.6745H24.4261C24.513 24.6745 24.5304 24.7108 24.5304 24.7911V25.1806C24.5304 25.2623 24.4955 25.2902 24.4174 25.2902H23.7849C23.7029 25.2902 23.6719 25.2605 23.6719 25.1806V24.0244C23.6719 23.9847 23.6858 23.9375 23.7465 23.9375H23.8508C23.8962 23.9375 23.9325 23.9794 23.9325 24.0244C23.933 24.036 23.9312 24.0475 23.927 24.0583C23.9228 24.0691 23.9164 24.0789 23.9083 24.0871C23.9001 24.0953 23.8903 24.1016 23.8795 24.1058C23.8687 24.11 23.8571 24.1118 23.8456 24.1113V24.6745ZM23.8456 24.8483V25.116H24.3563V24.8483H23.8456Z" fill="#3E3E3F"/>
<path d="M26.5176 24.526H26.8371C26.8925 24.526 26.9344 24.5347 26.9759 24.5749C27.0247 24.6203 27.03 24.6618 27.03 24.7225V25.0949C27.03 25.1486 27.0247 25.1871 26.9881 25.2307C26.9453 25.2827 26.8999 25.2897 26.8375 25.2897H26.4516C26.4063 25.2897 26.3801 25.2775 26.3369 25.2582L26.2709 25.229C26.2242 25.208 26.1719 25.1923 26.1719 25.1316C26.1719 25.0862 26.2103 25.0447 26.2552 25.0447C26.2762 25.0447 26.2915 25.05 26.3107 25.0587L26.363 25.0814C26.3875 25.0919 26.4272 25.1163 26.4551 25.1163H26.8567V24.7002H26.3438V23.9365H26.9436C26.989 23.9365 27.0304 23.961 27.0304 24.0234C27.0304 24.0863 26.9885 24.1103 26.9436 24.1103H26.5176V24.526Z" fill="#3E3E3F"/>
<path d="M28.0228 24.674V24.1714C28.0228 24.1278 28.0437 24.0845 28.1096 24.0845C28.1756 24.0845 28.1965 24.1282 28.1965 24.1714V24.674C28.2419 24.674 28.2834 24.6985 28.2834 24.7609C28.2834 24.8233 28.2415 24.8478 28.1965 24.8478V25.2023C28.1965 25.2578 28.1721 25.2892 28.1096 25.2892C28.0472 25.2892 28.0228 25.2578 28.0228 25.2023V24.8478H27.5117V24.0234C27.5117 23.9797 27.5326 23.9365 27.5985 23.9365C27.6644 23.9365 27.6854 23.9802 27.6854 24.0234V24.674H28.0228Z" fill="#3E3E3F"/>
<path d="M28.7588 24.1108C28.7134 24.1108 28.6719 24.0864 28.6719 24.0239C28.6719 23.9615 28.7138 23.937 28.7588 23.937H29.3568C29.3797 23.9366 29.4025 23.9407 29.4238 23.9493C29.4451 23.9579 29.4644 23.9707 29.4807 23.9869C29.4969 24.0031 29.5097 24.0225 29.5182 24.0438C29.5268 24.0651 29.531 24.0879 29.5305 24.1108V24.4449C29.5305 24.5143 29.5165 24.5649 29.4628 24.6134C29.5165 24.6623 29.5305 24.7125 29.5305 24.7819V25.116C29.531 25.1389 29.5268 25.1617 29.5182 25.183C29.5097 25.2043 29.4969 25.2237 29.4807 25.2399C29.4644 25.2562 29.4451 25.2689 29.4238 25.2775C29.4025 25.2861 29.3797 25.2902 29.3568 25.2898H28.7588C28.7134 25.2898 28.6719 25.2653 28.6719 25.2029C28.6719 25.1404 28.7138 25.116 28.7588 25.116H29.3568V24.8269C29.3568 24.7296 29.3184 24.6999 29.2699 24.6999H28.9295C28.8841 24.6999 28.8426 24.6754 28.8426 24.613C28.8426 24.5505 28.8841 24.5261 28.9295 24.5261H29.2699C29.3184 24.5261 29.3568 24.4968 29.3568 24.399V24.1108H28.7588Z" fill="#3E3E3F"/>
<path d="M30.0995 25.1164H30.6975C30.7429 25.1164 30.7844 25.1409 30.7844 25.2033C30.7844 25.2662 30.7425 25.2902 30.6975 25.2902H29.9258V24.7235C29.9258 24.5929 29.9917 24.527 30.1222 24.527H30.6107V24.1113H30.0127C29.9673 24.1113 29.9258 24.0868 29.9258 24.0244C29.9258 23.962 29.9677 23.9375 30.0127 23.9375H30.5897C30.6469 23.9375 30.687 23.9462 30.7307 23.9864C30.7791 24.0318 30.7844 24.0785 30.7844 24.141V24.4973C30.7844 24.5597 30.7791 24.6069 30.7307 24.6518C30.687 24.6916 30.6473 24.7003 30.5897 24.7003H30.0995V25.1164Z" fill="#3E3E3F"/>
<path d="M30.3463 13.9441V13.0714H28.6008C28.6008 12.8399 28.5089 12.6179 28.3452 12.4543C28.1815 12.2906 27.9595 12.1987 27.7281 12.1987H26.419C26.1875 12.1987 25.9655 12.2906 25.8019 12.4543C25.6382 12.6179 25.5463 12.8399 25.5463 13.0714H23.8008V13.9441H25.5463V14.8167H23.8008V15.6894H25.5463C25.5463 15.9209 25.6382 16.1429 25.8019 16.3065C25.9655 16.4702 26.1875 16.5621 26.419 16.5621H27.7281C27.9595 16.5621 28.1815 16.4702 28.3452 16.3065C28.5089 16.1429 28.6008 15.9209 28.6008 15.6894H30.3463V14.8167H28.6008V13.9441H30.3463Z" fill="#FBE158"/>
<path d="M6.92969 21.5103V21.5051C6.92969 21.0067 7.30289 20.5986 7.83359 20.5986C8.10419 20.5986 8.28179 20.6789 8.43459 20.7963C8.45339 20.8107 8.46859 20.8293 8.47899 20.8506C8.48949 20.8718 8.49489 20.8952 8.49479 20.9189C8.49489 20.9389 8.49089 20.9586 8.48329 20.9771C8.47559 20.9955 8.46429 21.0122 8.44999 21.0262C8.43579 21.0401 8.41889 21.0511 8.40039 21.0585C8.38179 21.0659 8.36199 21.0695 8.34209 21.0691C8.30869 21.0697 8.27609 21.0591 8.24949 21.0389C8.12949 20.9412 7.99899 20.8814 7.83139 20.8814C7.49839 20.8814 7.25309 21.1568 7.25309 21.4998V21.5046C7.25309 21.8476 7.49619 22.1257 7.83139 22.1257C8.01689 22.1257 8.14169 22.0654 8.26959 21.9581C8.29509 21.9355 8.32799 21.923 8.36209 21.9232C8.43979 21.9232 8.50749 21.9882 8.50749 22.0659C8.50729 22.0868 8.50269 22.1074 8.49409 22.1264C8.48539 22.1454 8.47289 22.1624 8.45729 22.1763C8.29189 22.3216 8.10419 22.4115 7.82089 22.4115C7.31029 22.4115 6.92969 22.0135 6.92969 21.5103Z" fill="#FCF6C2"/>
<path d="M8.85158 20.7838C8.85128 20.7634 8.85518 20.743 8.86288 20.7241C8.87058 20.7051 8.88198 20.6879 8.89648 20.6734C8.91098 20.659 8.92828 20.6476 8.94718 20.64C8.96618 20.6323 8.98648 20.6285 9.00698 20.6289H9.63288C9.85328 20.6289 10.0261 20.6939 10.1387 20.8039C10.2313 20.899 10.2841 21.0295 10.2841 21.1823V21.1871C10.2841 21.4677 10.1213 21.6379 9.88558 21.7104L10.2212 22.1337C10.2513 22.1712 10.2714 22.204 10.2714 22.2515C10.2707 22.29 10.2548 22.3266 10.2271 22.3534C10.1995 22.3801 10.1624 22.3948 10.1239 22.3942C10.094 22.3947 10.0646 22.3875 10.0383 22.3735C10.0119 22.3594 9.98958 22.3389 9.97328 22.3139L9.54778 21.7706H9.15978V22.2415C9.15978 22.3266 9.09208 22.3942 9.00698 22.3942C8.98668 22.3946 8.96658 22.3909 8.94768 22.3834C8.92888 22.3759 8.91178 22.3647 8.89728 22.3504C8.88278 22.3362 8.87128 22.3193 8.86348 22.3006C8.85568 22.2819 8.85158 22.2618 8.85158 22.2415V20.7838ZM9.61058 21.4974C9.83098 21.4974 9.97108 21.3822 9.97108 21.2045V21.1997C9.97108 21.0121 9.83578 20.9091 9.60798 20.9091H9.15978V21.4974H9.61058Z" fill="#FCF6C2"/>
<path d="M10.6641 22.2253V20.7829C10.6638 20.7625 10.6676 20.7421 10.6754 20.7232C10.6831 20.7042 10.6945 20.687 10.709 20.6726C10.7235 20.6581 10.7407 20.6467 10.7597 20.6391C10.7787 20.6314 10.799 20.6276 10.8195 20.628H11.8386C11.8751 20.628 11.91 20.6425 11.9358 20.6683C11.9616 20.694 11.9761 20.729 11.9761 20.7655C11.9761 20.8019 11.9616 20.8369 11.9358 20.8627C11.91 20.8885 11.8751 20.9029 11.8386 20.9029H10.9723V21.3586H11.726C11.7628 21.359 11.798 21.374 11.8238 21.4003C11.8496 21.4265 11.864 21.4619 11.8639 21.4987C11.8639 21.5737 11.8011 21.634 11.726 21.634H10.9723V22.1044H11.8513C11.9263 22.1044 11.9887 22.1673 11.9887 22.2423C11.9888 22.2604 11.9853 22.2783 11.9784 22.295C11.9715 22.3117 11.9614 22.3269 11.9486 22.3397C11.9358 22.3525 11.9206 22.3626 11.9039 22.3695C11.8872 22.3764 11.8693 22.3799 11.8513 22.3798H10.8195C10.799 22.3804 10.7786 22.3767 10.7596 22.3692C10.7406 22.3616 10.7233 22.3503 10.7087 22.3358C10.6942 22.3214 10.6828 22.3041 10.6751 22.2851C10.6674 22.2662 10.6637 22.2458 10.6641 22.2253Z" fill="#FCF6C2"/>
<path d="M12.3399 20.7838C12.3396 20.7634 12.3434 20.743 12.3511 20.7241C12.3588 20.7051 12.3703 20.6879 12.3848 20.6734C12.3993 20.659 12.4165 20.6476 12.4355 20.64C12.4545 20.6323 12.4748 20.6285 12.4953 20.6289H12.9937C13.5445 20.6289 13.9251 21.0068 13.9251 21.5004V21.5052C13.9251 21.9984 13.5445 22.3816 12.9937 22.3816H12.4953C12.4748 22.3819 12.4544 22.3782 12.4354 22.3705C12.4164 22.3628 12.3991 22.3514 12.3846 22.3369C12.3701 22.3224 12.3587 22.3051 12.351 22.2861C12.3433 22.2671 12.3395 22.2467 12.3399 22.2262V20.7838ZM12.9937 22.101C13.3616 22.101 13.6021 21.8531 13.6021 21.51V21.5048C13.6021 21.1618 13.3616 20.9091 12.9937 20.9091H12.648V22.101H12.9937Z" fill="#FCF6C2"/>
<path d="M14.3125 20.7694C14.3125 20.6843 14.3801 20.6167 14.4673 20.6167C14.5523 20.6167 14.6199 20.6843 14.6199 20.7694V22.2419C14.6199 22.327 14.5523 22.3947 14.4673 22.3947C14.447 22.3951 14.4269 22.3914 14.4081 22.3839C14.3892 22.3764 14.3721 22.3652 14.3577 22.351C14.3433 22.3367 14.3318 22.3198 14.3241 22.301C14.3163 22.2823 14.3124 22.2622 14.3125 22.2419V20.7694Z" fill="#FCF6C2"/>
<path d="M15.5218 20.9148H15.0958C15.0579 20.9148 15.0216 20.8997 14.9949 20.873C14.9681 20.8462 14.9531 20.8099 14.9531 20.7721C14.9531 20.7342 14.9681 20.6979 14.9949 20.6711C15.0216 20.6444 15.0579 20.6294 15.0958 20.6294H16.2602C16.3379 20.6294 16.4003 20.6944 16.4003 20.7721C16.4005 20.8095 16.3858 20.8455 16.3596 20.8722C16.3334 20.8989 16.2977 20.9142 16.2602 20.9148H15.8321V22.242C15.8321 22.3271 15.7623 22.3947 15.6771 22.3947C15.6569 22.3949 15.6369 22.3911 15.6181 22.3835C15.5994 22.3759 15.5824 22.3647 15.568 22.3505C15.5536 22.3363 15.5421 22.3194 15.5343 22.3008C15.5264 22.2822 15.5223 22.2622 15.5222 22.242L15.5218 20.9148Z" fill="#FCF6C2"/>
<path d="M17.3828 21.5103V21.5051C17.3828 21.0067 17.756 20.5986 18.2867 20.5986C18.5573 20.5986 18.7349 20.6789 18.8877 20.7963C18.9065 20.8107 18.9217 20.8293 18.9321 20.8506C18.9426 20.8718 18.948 20.8952 18.9479 20.9189C18.948 20.9389 18.944 20.9586 18.9364 20.9771C18.9287 20.9955 18.9174 21.0122 18.9031 21.0262C18.8889 21.0401 18.872 21.0511 18.8535 21.0585C18.8349 21.0659 18.8151 21.0695 18.7952 21.0691C18.7618 21.0697 18.7292 21.0591 18.7026 21.0389C18.5826 20.9412 18.4525 20.8814 18.2845 20.8814C17.9515 20.8814 17.7062 21.1568 17.7062 21.4998V21.5046C17.7062 21.8476 17.9493 22.1257 18.2845 22.1257C18.47 22.1257 18.5948 22.0654 18.7227 21.9581C18.7483 21.9355 18.7812 21.9231 18.8152 21.9232C18.8929 21.9232 18.9606 21.9882 18.9606 22.0659C18.9604 22.0868 18.9558 22.1074 18.9472 22.1264C18.9385 22.1454 18.926 22.1624 18.9104 22.1763C18.745 22.3216 18.5573 22.4115 18.274 22.4115C17.7634 22.4115 17.3828 22.0135 17.3828 21.5103Z" fill="#FCF6C2"/>
<path d="M19.2075 22.1812L19.8583 20.7287C19.8936 20.651 19.9561 20.6035 20.0438 20.6035H20.0586C20.1463 20.6035 20.2066 20.651 20.2415 20.7287L20.8927 22.1812C20.9041 22.201 20.9103 22.2233 20.9106 22.2462C20.911 22.2655 20.9075 22.2847 20.9004 22.3027C20.8933 22.3206 20.8826 22.337 20.8691 22.3508C20.8555 22.3646 20.8394 22.3755 20.8215 22.383C20.8037 22.3904 20.7846 22.3942 20.7652 22.3941C20.6923 22.3941 20.6426 22.3514 20.6151 22.2863L20.4724 21.9586H19.6209L19.4733 22.2968C19.4628 22.326 19.4433 22.3511 19.4177 22.3686C19.3921 22.3862 19.3616 22.3952 19.3306 22.3946C19.3055 22.395 19.2807 22.3886 19.2589 22.3762C19.237 22.3638 19.2189 22.3458 19.2063 22.3241C19.1938 22.3023 19.1873 22.2776 19.1875 22.2524C19.1877 22.2273 19.1946 22.2027 19.2075 22.1812ZM20.3541 21.6854L20.046 20.9766L19.7378 21.6854H20.3541Z" fill="#FCF6C2"/>
<path d="M21.2422 20.7838C21.2419 20.7634 21.2457 20.743 21.2534 20.7241C21.2612 20.7051 21.2726 20.6879 21.2871 20.6734C21.3016 20.659 21.3188 20.6476 21.3378 20.64C21.3568 20.6323 21.3771 20.6285 21.3976 20.6289H22.0235C22.2439 20.6289 22.4167 20.6939 22.5293 20.8039C22.6218 20.899 22.6746 21.0295 22.6746 21.1823V21.1871C22.6746 21.4677 22.5118 21.6379 22.2762 21.7104L22.6118 22.1337C22.6419 22.1712 22.662 22.204 22.662 22.2515C22.6613 22.29 22.6454 22.3266 22.6177 22.3534C22.5901 22.3801 22.5529 22.3948 22.5145 22.3942C22.4846 22.3947 22.4552 22.3875 22.4288 22.3735C22.4025 22.3594 22.3802 22.3389 22.3639 22.3139L21.9384 21.7706H21.5503V22.2415C21.5503 22.3266 21.4827 22.3942 21.3976 22.3942C21.3773 22.3946 21.3572 22.3909 21.3383 22.3834C21.3195 22.3759 21.3023 22.3647 21.2879 22.3504C21.2734 22.3362 21.2619 22.3193 21.2541 22.3006C21.2462 22.2819 21.2422 22.2618 21.2422 22.2415V20.7838ZM22.0008 21.4974C22.2212 21.4974 22.3613 21.3822 22.3613 21.2045V21.1997C22.3613 21.0121 22.226 20.9091 21.9981 20.9091H21.5499V21.4974H22.0008Z" fill="#FCF6C2"/>
<path d="M23.0508 20.7843C23.0505 20.7639 23.0543 20.7436 23.062 20.7247C23.0697 20.7057 23.0811 20.6885 23.0955 20.6741C23.11 20.6596 23.1272 20.6482 23.1461 20.6406C23.165 20.6329 23.1853 20.6291 23.2057 20.6294H23.7042C24.255 20.6294 24.6356 21.0073 24.6356 21.5009V21.5057C24.6356 21.9989 24.255 22.3821 23.7042 22.3821H23.2057C23.1853 22.3824 23.165 22.3785 23.146 22.3708C23.127 22.3631 23.1098 22.3517 23.0954 22.3372C23.0809 22.3227 23.0695 22.3054 23.0619 22.2865C23.0542 22.2675 23.0505 22.2472 23.0508 22.2267V20.7843ZM23.7042 22.1014C24.0725 22.1014 24.313 21.8535 24.313 21.5105V21.5053C24.313 21.1622 24.0725 20.9096 23.7042 20.9096H23.3585V22.1014H23.7042Z" fill="#FCF6C2"/>
</svg>
