<svg width="24" height="24" viewBox="0 0 24 24" fill="none" xmlns="http://www.w3.org/2000/svg">
<path d="M20.9148 6.957C20.9148 3.12 17.7918 0 13.9518 0H2.42578V3.86H13.4038C15.1418 3.86 16.5808 5.226 16.6128 6.904C16.6218 7.31655 16.5479 7.72672 16.3953 8.11014C16.2428 8.49356 16.0148 8.84242 15.7248 9.136C15.4368 9.43138 15.0925 9.66591 14.7122 9.82566C14.3318 9.98542 13.9233 10.0671 13.5108 10.066H9.23378C9.16093 10.0663 9.09113 10.0953 9.03962 10.1468C8.9881 10.1984 8.95904 10.2681 8.95878 10.341V13.772C8.95878 13.832 8.97611 13.886 9.01078 13.934L16.2668 24H21.5778L14.3048 13.906C17.9678 13.722 20.9148 10.646 20.9148 6.957ZM6.89578 5.923H2.42578V24H6.89578V5.923Z" fill="black"/>
</svg>
